HIERARCHY
ROOT SpineBase
{
  OFFSET 0.000000 0.000000 0.000000
  CHANNELS 6 Xposition Yposition Zposition Zrotation Xrotation Yrotation
  JOINT SpineMid
  {
    OFFSET 0.000000 31.513925 -0.000000
    CHANNELS 3 Zrotation Xrotation Yrotation
    JOINT SpineShoulder
    {
      OFFSET -0.258004 23.472822 -0.774320
      CHANNELS 3 Zrotation Xrotation Yrotation
      JOINT Neck
      {
        OFFSET -0.174186 7.788558 -0.591844
        CHANNELS 3 Zrotation Xrotation Yrotation
        JOINT Head
        {
          OFFSET 3.225847 12.727869 0.048698
          CHANNELS 3 Zrotation Xrotation Yrotation
          End Site
          {
            OFFSET 0 0 0
          }
        }
      }
      JOINT ShoulderLeft
      {
        OFFSET -17.042954 -1.932411 -5.129811
        CHANNELS 3 Zrotation Xrotation Yrotation
        JOINT ElbowLeft
        {
          OFFSET -4.502282 -25.932389 -2.086180
          CHANNELS 3 Zrotation Xrotation Yrotation
          JOINT WristLeft
          {
            OFFSET 0.918277 -25.547102 -8.332387
            CHANNELS 3 Zrotation Xrotation Yrotation
            JOINT HandLeft
            {
              OFFSET 0.228276 -5.678062 -0.511353
              CHANNELS 3 Zrotation Xrotation Yrotation
              JOINT HandTipLeft
              {
                OFFSET 1.554169 -7.352210 -0.014933
                CHANNELS 3 Zrotation Xrotation Yrotation
                End Site
                {
                  OFFSET 0 0 0
                }
              }
              JOINT ThumbLeft
              {
                OFFSET 2.997921 0.026599 -2.026042
                CHANNELS 3 Zrotation Xrotation Yrotation
                End Site
                {
                  OFFSET 0 0 0
                }
              }
            }
          }
        }
      }
      JOINT ShoulderRight
      {
        OFFSET 17.361327 -5.323012 -0.468757
        CHANNELS 3 Zrotation Xrotation Yrotation
        JOINT ElbowRight
        {
          OFFSET 1.139805 -29.882995 0.177829
          CHANNELS 3 Zrotation Xrotation Yrotation
          JOINT WristRight
          {
            OFFSET 0.304661 -23.259003 -6.090689
            CHANNELS 3 Zrotation Xrotation Yrotation
            JOINT HandRight
            {
              OFFSET -1.357051 -5.658396 -0.371707
              CHANNELS 3 Zrotation Xrotation Yrotation
              JOINT HandTipRight
              {
                OFFSET -0.902944 -7.570365 -0.788144
                CHANNELS 3 Zrotation Xrotation Yrotation
                End Site
                {
                  OFFSET 0 0 0
                }
              }
              JOINT ThumbRight
              {
                OFFSET -4.766388 -0.643119 -2.224797
                CHANNELS 3 Zrotation Xrotation Yrotation
                End Site
                {
                  OFFSET 0 0 0
                }
              }
            }
          }
        }
      }
    }
  }
  JOINT HipLeft
  {
    OFFSET -7.549026 1.586366 -4.540451
    CHANNELS 3 Zrotation Xrotation Yrotation
    JOINT KneeLeft
    {
      OFFSET -11.069847 -34.151383 3.814196
      CHANNELS 3 Zrotation Xrotation Yrotation
      JOINT AnkleLeft
      {
        OFFSET -2.167963 -32.869042 8.700827
        CHANNELS 3 Zrotation Xrotation Yrotation
        JOINT FootLeft
        {
          OFFSET 0.431249 -4.230789 -13.877502
          CHANNELS 3 Zrotation Xrotation Yrotation
          End Site
          {
            OFFSET 0 0 0
          }
        }
      }
    }
  }
  JOINT HipRight
  {
    OFFSET 5.801598 0.632503 -2.695278
    CHANNELS 3 Zrotation Xrotation Yrotation
    JOINT KneeRight
    {
      OFFSET 1.304411 -35.605541 3.234857
      CHANNELS 3 Zrotation Xrotation Yrotation
      JOINT AnkleRight
      {
        OFFSET -1.096108 -34.727426 9.851233
        CHANNELS 3 Zrotation Xrotation Yrotation
        JOINT FootRight
        {
          OFFSET -0.573760 -3.900479 -15.660371
          CHANNELS 3 Zrotation Xrotation Yrotation
          End Site
          {
            OFFSET 0 0 0
          }
        }
      }
    }
  }
}
MOTION
Frames: 12
Frame Time: 0.033333
82.662218 78.633554 345.391697 -0.000000 -0.000000 -7.868927 -0.000000 0.000000 7.868927 -0.000000 0.000000 0.000000 -0.000000 0.000000 0.000000 0.000000 0.000000 0.000000 -0.000000 0.000000 0.000000 -0.000000 0.000000 0.000000 -0.000000 0.000000 0.000000 -0.000000 0.000000 0.000000 0.000000 0.000000 0.000000 0.000000 0.000000 0.000000 -0.000000 0.000000 0.000000 -0.000000 0.000000 0.000000 -0.000000 0.000000 0.000000 -0.000000 0.000000 0.000000 0.000000 0.000000 0.000000 0.000000 0.000000 0.000000 -0.000000 0.000000 7.868927 -0.000000 0.000000 0.000000 -0.000000 0.000000 0.000000 0.000000 0.000000 0.000000 -0.000000 0.000000 7.868927 -0.000000 0.000000 0.000000 -0.000000 0.000000 0.000000 0.000000 0.000000 0.000000
82.657097 78.633712 345.389215 -0.005910 0.020307 -7.813816 0.008616 -0.019315 7.813818 -0.000000 0.000000 0.000000 -0.000000 0.000000 0.000000 0.000000 0.000000 0.000000 -0.000000 0.000000 0.000000 -0.000000 0.000000 0.000000 -0.000000 0.000000 0.000000 1.005712 0.845183 0.168888 0.000000 0.000000 0.000000 0.000000 0.000000 0.000000 -0.000000 0.000000 0.000000 -0.000000 0.000000 0.000000 -1.335849 1.635865 -0.284463 3.305434 -2.287686 0.265754 0.000000 0.000000 0.000000 0.000000 0.000000 0.000000 0.008616 -0.019315 7.813818 -0.000000 0.000000 0.000000 -0.000000 0.000000 0.000000 0.000000 0.000000 0.000000 0.008616 -0.019315 7.813818 -0.000000 0.000000 0.000000 0.720244 -1.751694 -2.796837 0.000000 0.000000 0.000000
82.651523 78.633576 345.388020 -0.011298 0.037617 -7.762091 0.016275 -0.035747 7.762100 -0.000000 0.000000 0.000000 -0.000000 0.000000 0.000000 0.000000 0.000000 0.000000 -0.000000 0.000000 0.000000 -0.000000 0.000000 0.000000 0.699297 -0.728816 -0.087860 1.082502 2.260768 0.369181 0.000000 0.000000 0.000000 0.000000 0.000000 0.000000 -0.000000 0.000000 0.000000 -0.000000 0.000000 0.000000 -2.427044 2.998700 -0.492990 5.880897 -4.070836 0.611161 0.000000 0.000000 0.000000 0.000000 0.000000 0.000000 0.016275 -0.035747 7.762100 -0.000000 0.000000 0.000000 -0.000000 0.000000 0.000000 0.000000 0.000000 0.000000 0.016275 -0.035747 7.762100 -0.000000 0.000000 0.000000 1.201531 -4.093975 -4.884882 0.000000 0.000000 0.000000
82.645493 78.633147 345.388110 -0.016164 0.051929 -7.713725 0.022988 -0.049290 7.713743 -0.000000 0.000000 0.000000 -0.000000 0.000000 0.000000 0.000000 0.000000 0.000000 -0.000000 0.000000 0.000000 -0.000000 0.000000 0.000000 0.875581 -0.918530 -0.108809 1.447597 2.966940 0.470180 0.000000 0.000000 0.000000 0.000000 0.000000 0.000000 -0.000000 0.000000 0.000000 -0.000000 0.000000 0.000000 -3.247126 4.048974 -0.637471 7.683540 -5.327100 0.937444 0.000000 0.000000 0.000000 0.000000 0.000000 0.000000 0.022988 -0.049290 7.713743 -0.000000 0.000000 0.000000 -0.000000 0.000000 0.000000 0.000000 0.000000 0.000000 0.022988 -0.049290 7.713743 -0.000000 0.000000 0.000000 1.421196 -7.157173 -6.102402 0.000000 0.000000 0.000000
82.639009 78.632424 345.389486 -0.020508 0.063242 -7.668694 0.028763 -0.059940 7.668721 -0.000000 0.000000 0.000000 -0.000000 0.000000 0.000000 0.000000 0.000000 0.000000 -0.000000 0.000000 0.000000 -0.000000 0.000000 0.000000 0.947420 -1.002689 -0.117400 1.673889 3.389691 0.529977 0.000000 0.000000 0.000000 0.000000 0.000000 0.000000 -0.000000 0.000000 0.000000 -0.000000 0.000000 0.000000 -3.773813 4.754762 -0.728505 8.676195 -6.044313 1.169082 0.000000 0.000000 0.000000 0.000000 0.000000 0.000000 0.028763 -0.059940 7.668721 -0.000000 0.000000 0.000000 -0.000000 0.000000 0.000000 0.000000 0.000000 0.000000 0.028763 -0.059940 7.668721 -0.000000 0.000000 0.000000 1.383983 -11.139716 -6.221414 0.000000 0.000000 0.000000
82.632070 78.631408 345.392148 -0.024328 0.071554 -7.626980 0.033610 -0.067693 7.627015 -0.000000 0.000000 0.000000 -0.000000 0.000000 0.000000 0.000000 0.000000 0.000000 -0.000000 0.000000 0.000000 -0.000000 0.000000 0.000000 0.921475 -0.987971 -0.114815 1.748353 3.529512 0.554320 0.000000 0.000000 0.000000 0.000000 0.000000 0.000000 -0.000000 0.000000 0.000000 -0.000000 0.000000 0.000000 -3.989430 5.091664 -0.773575 8.831298 -6.213219 1.258903 0.000000 0.000000 0.000000 0.000000 0.000000 0.000000 0.033610 -0.067693 7.627015 -0.000000 0.000000 0.000000 -0.000000 0.000000 0.000000 0.000000 0.000000 0.000000 0.033610 -0.067693 7.627015 -0.000000 0.000000 0.000000 1.158622 -16.320421 -4.890161 0.000000 0.000000 0.000000
82.630119 78.630217 345.397032 -0.029008 0.082658 -7.587148 0.039668 -0.078104 7.587196 -0.000000 0.000000 0.000000 -0.000000 0.000000 0.000000 0.000000 0.000000 0.000000 -0.000000 0.000000 0.000000 -0.000000 0.000000 0.000000 0.744513 -0.614738 -0.087790 2.482463 3.226500 0.529695 0.000000 0.000000 0.000000 0.000000 0.000000 0.000000 -0.000000 0.000000 0.000000 -0.000000 0.000000 0.000000 -3.741150 4.994832 -0.781219 7.782189 -5.875747 1.195675 0.000000 0.000000 0.000000 0.000000 0.000000 0.000000 0.039668 -0.078104 7.587196 -0.000000 0.000000 0.000000 -0.000000 0.000000 0.000000 0.000000 0.000000 0.000000 0.039668 -0.078104 7.587196 -0.000000 0.000000 0.000000 1.344898 -31.556765 1.886092 0.000000 0.000000 0.000000
82.618889 78.628501 345.399741 -0.033263 0.088210 -7.547437 0.044561 -0.083077 7.547495 -0.000000 0.000000 0.000000 -0.000000 0.000000 0.000000 0.000000 0.000000 0.000000 -0.000000 0.000000 0.000000 -0.000000 0.000000 0.000000 -0.000000 0.000000 0.000000 2.475199 2.439286 0.455876 0.000000 0.000000 0.000000 0.000000 0.000000 0.000000 -0.000000 0.000000 0.000000 -0.000000 0.000000 0.000000 -2.787724 4.186578 -0.713546 4.737773 -5.645000 1.069127 0.000000 0.000000 0.000000 0.000000 0.000000 0.000000 0.044561 -0.083077 7.547495 -0.000000 0.000000 0.000000 0.087859 2.158610 -0.065722 0.000000 0.000000 0.000000 0.044561 -0.083077 7.547495 -0.000000 0.000000 0.000000 2.396855 -37.396169 8.572676 0.000000 0.000000 0.000000
82.601061 78.624980 345.405570 -0.041445 0.087833 -7.515846 0.052577 -0.081657 7.515915 -0.000000 0.000000 0.000000 -0.000000 0.000000 0.000000 0.000000 0.000000 0.000000 -0.000000 0.000000 0.000000 -0.000000 0.000000 0.000000 -0.000000 0.000000 0.000000 0.348411 1.857973 0.386168 0.000000 0.000000 0.000000 0.000000 0.000000 0.000000 -0.000000 0.000000 0.000000 -0.000000 0.000000 0.000000 -2.368149 3.320782 -0.568494 4.240389 -5.088116 0.869419 0.000000 0.000000 0.000000 0.000000 0.000000 0.000000 0.052577 -0.081657 7.515915 -0.000000 0.000000 0.000000 0.079401 1.636123 -0.090549 0.000000 0.000000 0.000000 0.052577 -0.081657 7.515915 -0.000000 0.000000 0.000000 5.561622 -47.402647 16.137543 0.000000 0.000000 0.000000
82.583574 78.624747 345.415562 -0.044268 0.078286 -7.490763 0.054096 -0.071846 7.490827 -0.000000 0.000000 0.000000 -0.000000 0.000000 0.000000 0.000000 0.000000 0.000000 -0.000000 0.000000 0.000000 -0.000000 0.000000 0.000000 -0.000000 0.000000 0.000000 -0.520028 1.891573 0.409911 0.000000 0.000000 0.000000 0.000000 0.000000 0.000000 -0.000000 0.000000 0.000000 -0.000000 0.000000 0.000000 -2.523563 3.132460 -0.512994 3.734383 -3.778889 0.682209 0.000000 0.000000 0.000000 0.000000 0.000000 0.000000 0.054096 -0.071846 7.490827 -0.000000 0.000000 0.000000 -0.219795 -3.431149 0.404328 0.000000 0.000000 0.000000 0.054096 -0.071846 7.490827 -0.000000 0.000000 0.000000 6.204627 -47.582317 18.807824 0.000000 0.000000 0.000000
82.561599 78.623866 345.425373 -0.052301 0.064877 -7.463080 0.060285 -0.057534 7.463139 -0.000000 0.000000 0.000000 -0.000000 0.000000 0.000000 0.000000 0.000000 0.000000 -0.000000 0.000000 0.000000 -0.000000 0.000000 0.000000 0.073720 -1.188272 -0.053697 -2.302221 2.658875 0.447488 0.000000 0.000000 0.000000 0.000000 0.000000 0.000000 -0.000000 0.000000 0.000000 -0.000000 0.000000 0.000000 -2.956388 3.459067 -0.541866 3.885924 -3.121413 0.643505 0.000000 0.000000 0.000000 0.000000 0.000000 0.000000 0.060285 -0.057534 7.463139 -0.000000 0.000000 0.000000 -0.452071 -7.903285 0.834071 0.000000 0.000000 0.000000 0.060285 -0.057534 7.463139 -0.000000 0.000000 0.000000 3.439470 -38.872201 15.694450 0.000000 0.000000 0.000000
82.537098 78.622557 345.434510 -0.056742 0.050856 -7.434273 0.062846 -0.043087 7.434322 -0.000000 0.000000 0.000000 0.813840 0.217093 -0.059785 0.000000 0.000000 0.000000 -0.000000 0.000000 0.000000 -0.000000 0.000000 0.000000 -0.163766 -1.854467 -0.062559 -2.316977 3.852910 0.611247 0.000000 0.000000 0.000000 0.000000 0.000000 0.000000 -0.000000 0.000000 0.000000 -0.000000 0.000000 0.000000 -2.904177 3.190014 -0.489677 3.985689 -2.568388 0.524866 0.000000 0.000000 0.000000 0.000000 0.000000 0.000000 0.062846 -0.043087 7.434322 -0.000000 0.000000 0.000000 -0.610965 -11.244349 1.173655 0.000000 0.000000 0.000000 0.062846 -0.043087 7.434322 -0.000000 0.000000 0.000000 -0.043811 -19.904731 10.547128 0.000000 0.000000 0.000000
